<?xml version="1.0" encoding="UTF-8"?>
<svg xmlns="http://www.w3.org/2000/svg" xmlns:xlink="http://www.w3.org/1999/xlink" width="488px" height="365px" viewBox="0 0 488 365" version="1.1">
<g id="surface1">
<path style=" stroke:none;fill-rule:nonzero;fill:rgb(61.960784%,38.039216%,41.568627%);fill-opacity:1;" d="M 356.214844 346.691406 L 346.507812 346.691406 L 341.886719 309.222656 L 356.214844 309.222656 Z M 356.214844 346.691406 "/>
<path style=" stroke:none;fill-rule:nonzero;fill:rgb(18.431373%,18.039216%,25.490196%);fill-opacity:1;" d="M 361.335938 363.519531 L 354.375 363.519531 L 353.132812 356.945312 L 349.949219 363.519531 L 331.488281 363.519531 C 329.671875 363.519531 328.066406 362.339844 327.527344 360.601562 C 326.984375 358.867188 327.636719 356.980469 329.128906 355.949219 L 343.875 345.757812 L 343.875 339.109375 L 359.382812 340.035156 Z M 361.335938 363.519531 "/>
<path style=" stroke:none;fill-rule:nonzero;fill:rgb(61.960784%,38.039216%,41.568627%);fill-opacity:1;" d="M 413.878906 334.429688 L 406.089844 340.226562 L 380.042969 312.921875 L 391.539062 304.367188 Z M 413.878906 334.429688 "/>
<path style=" stroke:none;fill-rule:nonzero;fill:rgb(18.431373%,18.039216%,25.490196%);fill-opacity:1;" d="M 428.027344 344.878906 L 422.441406 349.035156 L 417.523438 344.5 L 418.890625 351.675781 L 404.074219 362.703125 C 402.617188 363.785156 400.625 363.796875 399.15625 362.726562 C 397.6875 361.65625 397.085938 359.753906 397.667969 358.035156 L 403.421875 341.054688 L 399.457031 335.71875 L 412.453125 327.199219 Z M 428.027344 344.878906 "/>
<path style=" stroke:none;fill-rule:nonzero;fill:rgb(18.431373%,18.039216%,25.490196%);fill-opacity:1;" d="M 367.515625 153.378906 C 367.515625 153.378906 385.929688 169.300781 377.433594 214.695312 L 367.058594 259.171875 L 400.890625 315.339844 L 390.105469 328.472656 L 346.121094 267.675781 L 330.183594 230.265625 L 325.710938 163.675781 Z M 367.515625 153.378906 "/>
<path style=" stroke:none;fill-rule:nonzero;fill:rgb(18.431373%,18.039216%,25.490196%);fill-opacity:1;" d="M 338.96875 240.925781 L 337.859375 258.09375 L 341.25 331.253906 L 357.203125 328.472656 L 360.25 276.386719 Z M 338.96875 240.925781 "/>
<path style=" stroke:none;fill-rule:nonzero;fill:rgb(100%,71.372549%,71.372549%);fill-opacity:1;" d="M 134.269531 355.5 L 142.949219 355.5 L 147.078125 321.992188 L 134.265625 321.992188 Z M 134.269531 355.5 "/>
<path style=" stroke:none;fill-rule:nonzero;fill:rgb(18.431373%,18.039216%,25.490196%);fill-opacity:1;" d="M 132.054688 352.664062 L 134.496094 352.664062 L 144.035156 348.78125 L 149.148438 352.664062 C 155.164062 352.664062 160.042969 357.542969 160.042969 363.5625 L 160.042969 363.917969 L 132.054688 363.917969 Z M 132.054688 352.664062 "/>
<path style=" stroke:none;fill-rule:nonzero;fill:rgb(100%,71.372549%,71.372549%);fill-opacity:1;" d="M 167.90625 350.023438 L 176.371094 351.9375 L 187.777344 320.164062 L 175.28125 317.339844 Z M 167.90625 350.023438 "/>
<path style=" stroke:none;fill-rule:nonzero;fill:rgb(18.431373%,18.039216%,25.490196%);fill-opacity:1;" d="M 166.371094 346.769531 L 168.753906 347.308594 L 178.914062 345.625 L 183.046875 350.539062 C 188.914062 351.863281 192.597656 357.699219 191.273438 363.574219 L 191.195312 363.917969 L 163.894531 357.75 Z M 166.371094 346.769531 "/>
<path style=" stroke:none;fill-rule:nonzero;fill:rgb(18.431373%,18.039216%,25.490196%);fill-opacity:1;" d="M 123.273438 150.660156 C 119.203125 162.945312 119.632812 176.277344 124.253906 190.585938 L 126.226562 271.160156 C 126.226562 271.160156 123.285156 323.996094 132.777344 342.585938 L 146.539062 342.585938 L 153.355469 266.332031 L 154.210938 215.152344 L 183.71875 258.332031 L 164.921875 341.339844 L 181.863281 342.855469 L 212.359375 252.773438 L 174.730469 165.375 Z M 123.273438 150.660156 "/>
<path style=" stroke:none;fill-rule:nonzero;fill:rgb(90.196078%,90.196078%,90.196078%);fill-opacity:1;" d="M 282 115.671875 C 292.527344 106.179688 308.183594 101.40625 321.320312 106.730469 C 307.847656 114.214844 297.453125 126.230469 291.976562 140.644531 C 289.886719 146.210938 288.140625 152.625 282.996094 155.605469 C 279.796875 157.457031 275.816406 157.550781 272.226562 156.652344 C 268.640625 155.757812 265.351562 153.964844 262.105469 152.1875 L 261.183594 152.164062 C 265.328125 138.605469 271.46875 125.167969 282 115.671875 Z M 282 115.671875 "/>
<path style=" stroke:none;fill-rule:nonzero;fill:rgb(100%,100%,100%);fill-opacity:1;" d="M 321.246094 107.015625 C 309.613281 108.523438 298.75 113.65625 290.199219 121.691406 C 288.328125 123.386719 286.734375 125.371094 285.480469 127.5625 C 284.324219 129.738281 283.777344 132.183594 283.886719 134.644531 C 283.941406 136.941406 284.265625 139.285156 283.765625 141.554688 C 283.210938 143.898438 281.683594 145.894531 279.566406 147.039062 C 276.996094 148.515625 274.046875 148.984375 271.148438 149.339844 C 267.929688 149.734375 264.582031 150.09375 261.792969 151.898438 C 261.457031 152.117188 261.136719 151.582031 261.472656 151.363281 C 266.320312 148.21875 272.457031 149.363281 277.667969 147.265625 C 280.101562 146.285156 282.253906 144.566406 283.015625 141.96875 C 283.679688 139.699219 283.347656 137.28125 283.269531 134.957031 C 283.128906 132.558594 283.574219 130.160156 284.570312 127.972656 C 285.710938 125.722656 287.222656 123.683594 289.046875 121.941406 C 293.089844 117.953125 297.730469 114.628906 302.804688 112.085938 C 308.582031 109.148438 314.816406 107.222656 321.238281 106.390625 C 321.636719 106.339844 321.640625 106.964844 321.246094 107.015625 Z M 321.246094 107.015625 "/>
<path style=" stroke:none;fill-rule:nonzero;fill:rgb(100%,100%,100%);fill-opacity:1;" d="M 292.800781 118.941406 C 290.417969 115.597656 290.808594 111.023438 293.722656 108.128906 C 294.007812 107.847656 294.460938 108.28125 294.171875 108.5625 C 291.457031 111.25 291.101562 115.519531 293.335938 118.621094 C 293.570312 118.949219 293.03125 119.265625 292.800781 118.941406 Z M 292.800781 118.941406 "/>
<path style=" stroke:none;fill-rule:nonzero;fill:rgb(100%,100%,100%);fill-opacity:1;" d="M 283.703125 133.484375 C 287.703125 134.195312 291.820312 133.367188 295.234375 131.175781 C 295.574219 130.957031 295.894531 131.492188 295.554688 131.710938 C 291.996094 133.988281 287.710938 134.835938 283.550781 134.089844 C 283.15625 134.019531 283.308594 133.414062 283.703125 133.484375 Z M 283.703125 133.484375 "/>
<path style=" stroke:none;fill-rule:nonzero;fill:rgb(100%,100%,100%);fill-opacity:1;" d="M 308.632812 109.976562 C 309.273438 111.4375 310.605469 112.476562 312.175781 112.746094 C 312.574219 112.8125 312.417969 113.417969 312.023438 113.351562 C 310.289062 113.046875 308.816406 111.902344 308.097656 110.296875 C 308.011719 110.148438 308.0625 109.960938 308.203125 109.867188 C 308.351562 109.78125 308.542969 109.828125 308.632812 109.976562 Z M 308.632812 109.976562 "/>
<path style=" stroke:none;fill-rule:nonzero;fill:rgb(90.196078%,90.196078%,90.196078%);fill-opacity:1;" d="M 335.78125 152.511719 C 335.535156 152.476562 335.285156 152.441406 335.03125 152.414062 C 331.679688 151.96875 328.300781 151.796875 324.921875 151.898438 C 324.660156 151.902344 324.394531 151.910156 324.132812 151.921875 C 315.996094 152.257812 307.992188 154.101562 300.523438 157.359375 C 297.554688 158.660156 294.6875 160.183594 291.949219 161.917969 C 288.167969 164.316406 284.257812 167.214844 280.03125 168.191406 C 279.59375 168.296875 279.144531 168.378906 278.695312 168.429688 L 261.230469 153.292969 C 261.207031 153.238281 261.179688 153.1875 261.160156 153.136719 L 260.433594 152.5625 C 260.566406 152.464844 260.710938 152.363281 260.84375 152.261719 C 260.921875 152.207031 261.003906 152.152344 261.082031 152.09375 C 261.136719 152.054688 261.191406 152.019531 261.234375 151.980469 C 261.253906 151.96875 261.273438 151.957031 261.285156 151.949219 C 261.332031 151.910156 261.378906 151.882812 261.421875 151.847656 C 262.214844 151.285156 263.011719 150.730469 263.816406 150.175781 C 263.820312 150.171875 263.820312 150.171875 263.828125 150.171875 C 269.910156 145.902344 276.476562 142.367188 283.390625 139.644531 C 283.601562 139.566406 283.8125 139.484375 284.027344 139.414062 C 287.140625 138.253906 290.34375 137.351562 293.605469 136.714844 C 295.390625 136.375 297.195312 136.121094 299.007812 135.960938 C 303.691406 135.554688 308.40625 135.890625 312.988281 136.953125 C 322.117188 139.070312 330.464844 144.085938 335.410156 151.910156 C 335.539062 152.109375 335.660156 152.308594 335.78125 152.511719 Z M 335.78125 152.511719 "/>
<path style=" stroke:none;fill-rule:nonzero;fill:rgb(100%,100%,100%);fill-opacity:1;" d="M 335.550781 152.699219 C 325.359375 146.890625 313.59375 144.445312 301.933594 145.710938 C 299.417969 145.9375 296.953125 146.558594 294.632812 147.554688 C 292.402344 148.597656 290.492188 150.21875 289.101562 152.25 C 287.765625 154.117188 286.613281 156.183594 284.847656 157.691406 C 282.992188 159.230469 280.574219 159.902344 278.195312 159.542969 C 275.253906 159.171875 272.621094 157.769531 270.089844 156.304688 C 267.285156 154.683594 264.394531 152.949219 261.082031 152.714844 C 260.679688 152.6875 260.746094 152.066406 261.148438 152.09375 C 266.910156 152.503906 271.121094 157.113281 276.542969 158.578125 C 279.074219 159.261719 281.828125 159.1875 283.996094 157.570312 C 285.894531 156.160156 287.085938 154.03125 288.421875 152.128906 C 289.75 150.125 291.550781 148.480469 293.660156 147.335938 C 295.921875 146.222656 298.359375 145.507812 300.863281 145.214844 C 306.488281 144.46875 312.199219 144.609375 317.78125 145.636719 C 324.15625 146.769531 330.292969 148.992188 335.921875 152.195312 C 336.273438 152.394531 335.898438 152.898438 335.550781 152.699219 Z M 335.550781 152.699219 "/>
<path style=" stroke:none;fill-rule:nonzero;fill:rgb(100%,100%,100%);fill-opacity:1;" d="M 305.664062 145.082031 C 305.777344 140.976562 308.839844 137.558594 312.90625 137.003906 C 313.304688 136.953125 313.40625 137.570312 313.007812 137.621094 C 309.21875 138.132812 306.367188 141.324219 306.285156 145.148438 C 306.277344 145.550781 305.65625 145.480469 305.664062 145.082031 Z M 305.664062 145.082031 "/>
<path style=" stroke:none;fill-rule:nonzero;fill:rgb(100%,100%,100%);fill-opacity:1;" d="M 289.652344 151.214844 C 292.417969 154.1875 296.203125 156.011719 300.25 156.316406 C 300.652344 156.347656 300.585938 156.96875 300.183594 156.9375 C 295.972656 156.609375 292.039062 154.707031 289.167969 151.605469 C 288.894531 151.308594 289.382812 150.917969 289.652344 151.214844 Z M 289.652344 151.214844 "/>
<path style=" stroke:none;fill-rule:nonzero;fill:rgb(100%,100%,100%);fill-opacity:1;" d="M 323.699219 147.460938 C 323.332031 149.015625 323.769531 150.648438 324.863281 151.808594 C 325.140625 152.101562 324.652344 152.492188 324.378906 152.203125 C 323.175781 150.914062 322.6875 149.113281 323.078125 147.394531 C 323.101562 147.226562 323.253906 147.105469 323.421875 147.117188 C 323.59375 147.136719 323.71875 147.289062 323.699219 147.460938 Z M 323.699219 147.460938 "/>
<path style=" stroke:none;fill-rule:nonzero;fill:rgb(90.196078%,90.196078%,90.196078%);fill-opacity:1;" d="M 28.992188 354.890625 C 28.171875 357.96875 26.019531 360.53125 23.417969 362.398438 C 22.992188 362.707031 22.558594 362.988281 22.117188 363.253906 C 21.980469 363.332031 21.847656 363.417969 21.703125 363.492188 C 21.550781 363.582031 21.398438 363.667969 21.246094 363.746094 L 9.015625 363.746094 C 8.792969 363.300781 8.578125 362.847656 8.363281 362.398438 C 3.125 351.375 -0.558594 339.480469 0.0703125 327.367188 C 0.320312 322.667969 1.304688 318.035156 2.992188 313.644531 C 6.351562 304.890625 12.480469 297.3125 20.914062 293.496094 C 21.121094 293.402344 21.34375 293.304688 21.558594 293.214844 C 21.488281 293.457031 21.421875 293.695312 21.355469 293.9375 C 20.449219 297.199219 19.808594 300.527344 19.441406 303.894531 C 19.410156 304.152344 19.378906 304.414062 19.359375 304.679688 C 18.554688 312.792969 19.269531 320.984375 21.460938 328.835938 C 21.46875 328.855469 21.472656 328.875 21.476562 328.894531 C 21.960938 330.632812 22.515625 332.34375 23.152344 334.027344 C 23.648438 335.355469 24.1875 336.667969 24.773438 337.960938 C 27.230469 343.375 30.519531 349.148438 28.992188 354.890625 Z M 28.992188 354.890625 "/>
<path style=" stroke:none;fill-rule:nonzero;fill:rgb(100%,100%,100%);fill-opacity:1;" d="M 21.710938 293.46875 C 21.589844 293.628906 21.472656 293.78125 21.355469 293.9375 C 18.871094 297.234375 16.761719 300.792969 15.066406 304.554688 C 14.976562 304.742188 14.890625 304.929688 14.816406 305.121094 C 12.496094 310.375 11.003906 315.957031 10.394531 321.667969 C 10.386719 321.707031 10.386719 321.746094 10.382812 321.785156 C 10.242188 323.121094 10.15625 324.46875 10.125 325.816406 C 9.996094 328.339844 10.269531 330.867188 10.933594 333.308594 C 11.535156 335.300781 12.59375 337.125 14.019531 338.636719 C 14.160156 338.792969 14.300781 338.945312 14.457031 339.089844 C 14.566406 339.210938 14.691406 339.328125 14.8125 339.441406 C 15.953125 340.535156 17.203125 341.546875 18.277344 342.71875 C 18.769531 343.242188 19.214844 343.8125 19.605469 344.417969 C 20.871094 346.464844 21.199219 348.957031 20.511719 351.261719 C 19.742188 354.125 17.984375 356.542969 16.1875 358.847656 C 15.285156 360 14.359375 361.167969 13.554688 362.398438 C 13.261719 362.839844 12.992188 363.289062 12.742188 363.746094 L 12.03125 363.746094 C 12.265625 363.289062 12.527344 362.839844 12.808594 362.398438 C 14.875 359.144531 17.808594 356.351562 19.328125 352.769531 C 20.359375 350.351562 20.667969 347.613281 19.371094 345.242188 C 18.988281 344.554688 18.527344 343.910156 17.996094 343.328125 C 16.960938 342.160156 15.722656 341.15625 14.597656 340.097656 C 14.3125 339.832031 14.035156 339.5625 13.769531 339.277344 C 12.363281 337.84375 11.273438 336.128906 10.582031 334.242188 C 9.796875 331.84375 9.425781 329.332031 9.484375 326.8125 C 9.484375 325.203125 9.570312 323.585938 9.726562 321.980469 C 9.746094 321.773438 9.765625 321.566406 9.789062 321.355469 C 10.945312 311.242188 14.785156 301.625 20.914062 293.496094 C 21.027344 293.339844 21.144531 293.1875 21.261719 293.035156 C 21.507812 292.714844 21.953125 293.15625 21.710938 293.46875 Z M 21.710938 293.46875 "/>
<path style=" stroke:none;fill-rule:nonzero;fill:rgb(100%,100%,100%);fill-opacity:1;" d="M 10.019531 322.03125 C 5.972656 321.351562 3.015625 317.839844 3.03125 313.734375 C 3.035156 313.566406 3.167969 313.429688 3.339844 313.425781 C 3.507812 313.421875 3.648438 313.554688 3.65625 313.722656 C 3.632812 317.542969 6.398438 320.816406 10.171875 321.425781 C 10.566406 321.492188 10.414062 322.097656 10.019531 322.03125 Z M 10.019531 322.03125 "/>
<path style=" stroke:none;fill-rule:nonzero;fill:rgb(100%,100%,100%);fill-opacity:1;" d="M 13.863281 338.753906 C 17.191406 336.425781 19.519531 332.925781 20.382812 328.957031 C 20.46875 328.566406 21.074219 328.71875 20.988281 329.109375 C 20.082031 333.238281 17.652344 336.875 14.183594 339.289062 C 13.851562 339.519531 13.535156 338.980469 13.863281 338.753906 Z M 13.863281 338.753906 "/>
<path style=" stroke:none;fill-rule:nonzero;fill:rgb(100%,100%,100%);fill-opacity:1;" d="M 14.878906 304.488281 C 16.363281 305.070312 18.042969 304.863281 19.34375 303.9375 C 19.671875 303.703125 19.988281 304.242188 19.664062 304.476562 C 18.222656 305.488281 16.371094 305.71875 14.726562 305.09375 C 14.5625 305.046875 14.464844 304.882812 14.5 304.714844 C 14.542969 304.546875 14.710938 304.449219 14.878906 304.488281 Z M 14.878906 304.488281 "/>
<path style=" stroke:none;fill-rule:nonzero;fill:rgb(90.196078%,90.196078%,90.196078%);fill-opacity:1;" d="M 64.132812 315.351562 C 63.933594 315.503906 63.730469 315.65625 63.53125 315.816406 C 60.847656 317.871094 58.335938 320.144531 56.015625 322.605469 C 55.835938 322.792969 55.65625 322.984375 55.480469 323.179688 L 55.472656 323.183594 C 49.980469 329.152344 45.636719 336.085938 42.660156 343.636719 L 42.644531 343.6875 C 42.636719 343.703125 42.632812 343.714844 42.625 343.730469 C 41.449219 346.753906 40.496094 349.859375 39.78125 353.023438 C 39.09375 356.113281 38.527344 359.421875 37.445312 362.398438 C 37.28125 362.859375 37.101562 363.3125 36.910156 363.746094 L 11.769531 363.746094 C 11.855469 363.300781 11.945312 362.847656 12.035156 362.398438 C 13.3125 355.84375 15.3125 349.449219 17.996094 343.328125 C 18.085938 343.125 18.175781 342.921875 18.277344 342.71875 C 19.664062 339.695312 21.289062 336.789062 23.144531 334.03125 C 23.144531 334.03125 23.148438 334.027344 23.148438 334.027344 C 23.148438 334.027344 23.152344 334.027344 23.152344 334.027344 C 24.171875 332.519531 25.265625 331.070312 26.433594 329.675781 C 29.457031 326.074219 33.027344 322.972656 37.015625 320.484375 C 37.039062 320.46875 37.066406 320.457031 37.089844 320.4375 C 45.03125 315.511719 54.441406 313.160156 63.4375 315.195312 L 63.441406 315.195312 C 63.671875 315.246094 63.898438 315.296875 64.132812 315.351562 Z M 64.132812 315.351562 "/>
<path style=" stroke:none;fill-rule:nonzero;fill:rgb(100%,100%,100%);fill-opacity:1;" d="M 64.101562 315.652344 C 63.910156 315.703125 63.71875 315.757812 63.53125 315.816406 C 59.570312 316.949219 55.742188 318.519531 52.125 320.496094 C 51.945312 320.59375 51.765625 320.695312 51.582031 320.796875 C 46.585938 323.589844 42.046875 327.136719 38.132812 331.316406 C 38.128906 331.320312 38.125 331.324219 38.125 331.328125 C 38.082031 331.371094 38.03125 331.421875 37.988281 331.46875 C 37.085938 332.441406 36.214844 333.453125 35.390625 334.496094 C 33.773438 336.4375 32.472656 338.621094 31.53125 340.964844 C 30.8125 342.917969 30.558594 345.011719 30.792969 347.082031 C 30.808594 347.289062 30.835938 347.496094 30.863281 347.703125 C 30.886719 347.867188 30.910156 348.03125 30.9375 348.203125 C 31.3125 350.472656 31.957031 352.746094 31.777344 355.0625 C 31.554688 357.460938 30.316406 359.648438 28.378906 361.074219 C 27.726562 361.582031 27.027344 362.023438 26.296875 362.398438 C 25.25 362.941406 24.15625 363.390625 23.035156 363.746094 L 20.8125 363.746094 C 21.109375 363.664062 21.40625 363.578125 21.703125 363.492188 C 22.769531 363.191406 23.8125 362.828125 24.832031 362.398438 C 25.414062 362.15625 25.980469 361.875 26.527344 361.5625 C 28.800781 360.253906 30.695312 358.253906 31.089844 355.574219 C 31.4375 353.234375 30.769531 350.890625 30.375 348.597656 C 30.304688 348.203125 30.242188 347.8125 30.210938 347.421875 C 29.9375 345.4375 30.101562 343.417969 30.691406 341.5 C 31.503906 339.113281 32.71875 336.882812 34.285156 334.902344 C 35.253906 333.617188 36.289062 332.378906 37.386719 331.195312 C 37.519531 331.042969 37.660156 330.890625 37.808594 330.738281 C 41.808594 326.53125 46.421875 322.957031 51.5 320.140625 L 51.503906 320.140625 C 55.277344 318.035156 59.28125 316.378906 63.4375 315.195312 L 63.441406 315.195312 C 63.628906 315.136719 63.820312 315.082031 64.007812 315.03125 C 64.398438 314.925781 64.488281 315.542969 64.101562 315.652344 Z M 64.101562 315.652344 "/>
<path style=" stroke:none;fill-rule:nonzero;fill:rgb(100%,100%,100%);fill-opacity:1;" d="M 37.585938 331.410156 C 34.765625 328.429688 34.515625 323.84375 37 320.578125 C 37.242188 320.257812 37.75 320.625 37.507812 320.941406 C 35.1875 323.980469 35.429688 328.257812 38.070312 331.019531 C 38.351562 331.3125 37.863281 331.699219 37.585938 331.410156 Z M 37.585938 331.410156 "/>
<path style=" stroke:none;fill-rule:nonzero;fill:rgb(100%,100%,100%);fill-opacity:1;" d="M 30.597656 347.078125 C 34.652344 347.222656 38.617188 345.835938 41.695312 343.1875 C 42 342.925781 42.390625 343.410156 42.085938 343.675781 C 38.878906 346.421875 34.75 347.859375 30.527344 347.699219 C 30.125 347.683594 30.195312 347.0625 30.597656 347.078125 Z M 30.597656 347.078125 "/>
<path style=" stroke:none;fill-rule:nonzero;fill:rgb(100%,100%,100%);fill-opacity:1;" d="M 52.019531 320.332031 C 52.859375 321.691406 54.320312 322.535156 55.914062 322.582031 C 56.316406 322.59375 56.246094 323.214844 55.847656 323.203125 C 54.089844 323.144531 52.472656 322.214844 51.535156 320.722656 C 51.433594 320.589844 51.453125 320.394531 51.582031 320.285156 C 51.714844 320.179688 51.914062 320.199219 52.019531 320.332031 Z M 52.019531 320.332031 "/>
<path style=" stroke:none;fill-rule:nonzero;fill:rgb(100%,72.156863%,72.156863%);fill-opacity:1;" d="M 258.070312 97.972656 C 256.894531 99.519531 255.097656 100.464844 253.15625 100.558594 C 251.21875 100.648438 249.339844 99.875 248.023438 98.445312 L 226.648438 107.75 L 228.730469 95.808594 L 248.710938 88.804688 C 251.3125 86.707031 255.070312 86.890625 257.457031 89.226562 C 259.847656 91.566406 260.109375 95.324219 258.070312 97.972656 Z M 258.070312 97.972656 "/>
<path style=" stroke:none;fill-rule:nonzero;fill:rgb(90.196078%,90.196078%,90.196078%);fill-opacity:1;" d="M 243.804688 101.699219 L 194.160156 123.832031 L 194.054688 123.792969 L 137.46875 103.613281 C 128.71875 99.039062 125.050781 88.425781 129.109375 79.417969 C 131.300781 74.570312 135.460938 70.890625 140.535156 69.308594 C 145.613281 67.726562 151.125 68.390625 155.679688 71.136719 L 197.789062 96.523438 L 238.621094 91.226562 Z M 243.804688 101.699219 "/>
<path style=" stroke:none;fill-rule:nonzero;fill:rgb(80%,80%,80%);fill-opacity:1;" d="M 487.832031 364.207031 C 487.832031 364.382812 487.761719 364.554688 487.636719 364.683594 C 487.507812 364.808594 487.339844 364.878906 487.160156 364.878906 L 0.691406 364.878906 C 0.320312 364.878906 0.0195312 364.578125 0.0195312 364.207031 C 0.0195312 363.832031 0.320312 363.53125 0.691406 363.53125 L 487.160156 363.53125 C 487.339844 363.53125 487.507812 363.601562 487.636719 363.730469 C 487.761719 363.855469 487.832031 364.027344 487.832031 364.207031 Z M 487.832031 364.207031 "/>
<path style=" stroke:none;fill-rule:nonzero;fill:rgb(90.196078%,90.196078%,90.196078%);fill-opacity:1;" d="M 177.1875 167.953125 L 127.140625 159.945312 C 124.484375 159.09375 122.332031 157.121094 121.25 154.546875 C 120.167969 151.976562 120.261719 149.058594 121.507812 146.5625 L 123.777344 142.019531 L 122.898438 94.289062 C 122.679688 81.652344 129.222656 69.859375 140.050781 63.359375 L 144.933594 60.441406 L 147.398438 54.171875 L 170.140625 54.726562 L 170.207031 62.949219 L 178.351562 75.945312 L 178.351562 76 L 177.839844 146.742188 L 175.597656 154.042969 L 178.992188 162.535156 Z M 177.1875 167.953125 "/>
<path style=" stroke:none;fill-rule:nonzero;fill:rgb(100%,72.156863%,72.156863%);fill-opacity:1;" d="M 181.515625 25.695312 C 181.515625 37.117188 172.265625 46.378906 160.851562 46.378906 C 149.441406 46.378906 140.1875 37.117188 140.1875 25.695312 C 140.1875 14.277344 149.441406 5.015625 160.851562 5.015625 C 172.265625 5.015625 181.515625 14.277344 181.515625 25.695312 Z M 181.515625 25.695312 "/>
<path style=" stroke:none;fill-rule:nonzero;fill:rgb(18.431373%,18.039216%,25.490196%);fill-opacity:1;" d="M 139.335938 30.207031 C 138.71875 27.605469 139 23.949219 139.351562 21.332031 C 140.261719 14.472656 144.070312 7.953125 149.851562 4.089844 C 150.949219 3.257812 152.25 2.738281 153.621094 2.59375 C 154.988281 2.535156 156.472656 3.269531 156.890625 4.570312 C 157.589844 2.832031 158.972656 1.457031 160.71875 0.777344 C 162.453125 0.109375 164.316406 -0.140625 166.164062 0.0429688 C 173.460938 0.644531 179.835938 5.207031 182.765625 11.917969 C 183.320312 13.230469 184.859375 8.382812 185.558594 9.625 C 186.203125 10.914062 187.324219 11.898438 188.683594 12.371094 C 190.054688 12.753906 190.609375 18.402344 191.148438 17.085938 C 192 19.066406 191.777344 21.34375 190.5625 23.117188 C 189.34375 24.894531 187.300781 25.921875 185.148438 25.84375 C 183.753906 25.789062 182.421875 25.277344 181.042969 25.054688 C 176.117188 24.265625 170.886719 27.84375 169.835938 32.726562 C 169.457031 31.3125 168.855469 29.972656 168.050781 28.75 C 167.222656 27.519531 165.847656 26.765625 164.367188 26.726562 C 162.964844 26.777344 161.730469 27.695312 160.824219 28.765625 C 159.914062 29.835938 159.230469 31.082031 158.3125 32.144531 C 155.625 35.265625 151.988281 42.539062 148.15625 42.007812 C 145.128906 41.589844 140.175781 33.753906 139.335938 30.207031 Z M 139.335938 30.207031 "/>
<path style=" stroke:none;fill-rule:nonzero;fill:rgb(100%,100%,100%);fill-opacity:1;" d="M 285.769531 121.40625 C 286.066406 119.460938 284.917969 117.582031 283.050781 116.960938 L 227.398438 98.414062 C 226.867188 98.234375 226.300781 98.171875 225.742188 98.222656 L 211.792969 99.542969 L 203.789062 100.304688 L 189.019531 101.699219 C 187.1875 101.875 185.703125 103.269531 185.410156 105.089844 L 177.910156 151.964844 C 177.621094 153.851562 178.671875 155.683594 180.449219 156.378906 L 236.679688 178.101562 C 236.941406 178.203125 237.214844 178.277344 237.496094 178.320312 C 237.902344 178.386719 238.316406 178.390625 238.726562 178.328125 L 275.0625 172.941406 C 276.820312 172.683594 278.203125 171.304688 278.464844 169.542969 Z M 285.769531 121.40625 "/>
<path style=" stroke:none;fill-rule:nonzero;fill:rgb(25.882353%,25.882353%,32.156863%);fill-opacity:1;" d="M 181.722656 153.074219 L 237.953125 174.796875 C 238.035156 174.828125 238.125 174.839844 238.210938 174.824219 L 274.539062 169.4375 C 274.761719 169.40625 274.9375 169.234375 274.96875 169.011719 L 282.273438 120.875 C 282.308594 120.632812 282.164062 120.398438 281.933594 120.316406 L 281.558594 120.191406 L 226.28125 101.773438 C 226.257812 101.765625 226.230469 101.757812 226.203125 101.753906 C 226.160156 101.746094 226.117188 101.746094 226.074219 101.75 L 192.050781 104.96875 L 189.351562 105.222656 C 189.125 105.246094 188.941406 105.421875 188.902344 105.648438 L 181.40625 152.523438 C 181.367188 152.757812 181.5 152.988281 181.722656 153.074219 Z M 181.722656 153.074219 "/>
<path style=" stroke:none;fill-rule:nonzero;fill:rgb(18.431373%,18.039216%,25.490196%);fill-opacity:1;" d="M 192.050781 104.96875 L 226.074219 101.75 C 226.117188 101.746094 226.160156 101.746094 226.203125 101.753906 C 226.230469 101.757812 226.257812 101.765625 226.28125 101.773438 L 281.558594 120.191406 L 266.980469 121.734375 L 261.523438 122.3125 L 245.992188 123.953125 C 245.949219 123.957031 245.902344 123.953125 245.855469 123.953125 C 245.828125 123.941406 245.800781 123.933594 245.769531 123.925781 Z M 192.050781 104.96875 "/>
<path style=" stroke:none;fill-rule:nonzero;fill:rgb(24.705882%,23.921569%,33.72549%);fill-opacity:1;" d="M 180.445312 156.382812 L 236.675781 178.101562 C 236.941406 178.203125 237.214844 178.277344 237.496094 178.316406 C 237.902344 178.382812 238.320312 178.390625 238.726562 178.332031 L 275.058594 172.941406 C 276.820312 172.6875 278.203125 171.304688 278.464844 169.546875 L 285.765625 121.40625 C 285.875 120.695312 285.792969 119.972656 285.53125 119.304688 C 285.492188 119.214844 285.457031 119.125 285.414062 119.042969 C 285.125 118.433594 284.683594 117.90625 284.132812 117.515625 C 283.800781 117.277344 283.4375 117.089844 283.050781 116.960938 L 282.984375 116.941406 L 227.402344 98.414062 C 227.175781 98.339844 226.945312 98.285156 226.710938 98.246094 C 226.386719 98.199219 226.0625 98.191406 225.738281 98.226562 L 211.792969 99.542969 L 203.789062 100.304688 L 189.019531 101.703125 C 188.414062 101.757812 187.832031 101.949219 187.3125 102.265625 C 187.273438 102.285156 187.234375 102.308594 187.199219 102.335938 C 187.171875 102.351562 187.148438 102.371094 187.125 102.390625 C 186.207031 103.015625 185.589844 103.988281 185.414062 105.085938 L 177.910156 151.964844 C 177.617188 153.851562 178.671875 155.6875 180.445312 156.382812 Z M 186.40625 105.25 C 186.5 104.6875 186.746094 104.164062 187.125 103.738281 C 187.238281 103.601562 187.367188 103.476562 187.507812 103.363281 C 187.890625 103.054688 188.339844 102.84375 188.820312 102.75 C 188.917969 102.730469 189.011719 102.71875 189.109375 102.710938 L 213.980469 100.359375 L 225.835938 99.230469 C 225.917969 99.222656 225.992188 99.222656 226.066406 99.21875 C 226.246094 99.214844 226.425781 99.226562 226.601562 99.257812 C 226.761719 99.277344 226.921875 99.316406 227.078125 99.371094 L 282.726562 117.921875 C 282.769531 117.9375 282.808594 117.953125 282.851562 117.96875 C 283.359375 118.15625 283.800781 118.480469 284.136719 118.902344 C 284.671875 119.558594 284.902344 120.414062 284.769531 121.25 L 277.464844 169.394531 C 277.269531 170.710938 276.234375 171.746094 274.914062 171.941406 L 238.578125 177.328125 C 238.058594 177.402344 237.53125 177.34375 237.039062 177.152344 L 180.808594 155.4375 C 179.480469 154.914062 178.691406 153.542969 178.910156 152.128906 Z M 186.40625 105.25 "/>
<path style=" stroke:none;fill-rule:nonzero;fill:rgb(24.705882%,23.921569%,33.72549%);fill-opacity:1;" d="M 187.003906 102.644531 C 187.03125 102.558594 187.085938 102.484375 187.15625 102.425781 C 187.175781 102.410156 187.203125 102.390625 187.226562 102.378906 C 187.25 102.367188 187.273438 102.351562 187.296875 102.34375 C 187.410156 102.296875 187.535156 102.296875 187.652344 102.339844 L 188.820312 102.75 L 246 122.9375 L 259.382812 121.519531 L 266.871094 120.730469 L 282.71875 119.050781 L 284.136719 118.902344 L 284.414062 118.871094 C 284.65625 118.851562 284.882812 119.003906 284.949219 119.242188 C 284.957031 119.269531 284.964844 119.296875 284.964844 119.324219 C 284.988281 119.546875 284.863281 119.761719 284.65625 119.84375 C 284.609375 119.863281 284.5625 119.875 284.515625 119.882812 L 282.585938 120.085938 L 266.980469 121.734375 L 261.523438 122.3125 L 245.992188 123.953125 C 245.949219 123.957031 245.902344 123.953125 245.855469 123.953125 C 245.828125 123.941406 245.800781 123.933594 245.769531 123.925781 L 187.507812 103.363281 L 187.308594 103.292969 C 187.265625 103.28125 187.222656 103.257812 187.1875 103.226562 C 187.003906 103.09375 186.929688 102.859375 187.003906 102.644531 Z M 187.003906 102.644531 "/>
<path style=" stroke:none;fill-rule:nonzero;fill:rgb(24.705882%,23.921569%,33.72549%);fill-opacity:1;" d="M 237.648438 178.464844 C 237.375 178.421875 237.1875 178.164062 237.230469 177.890625 L 245.4375 123.375 C 245.480469 123.097656 245.738281 122.90625 246.015625 122.949219 L 246.019531 122.949219 C 246.292969 122.996094 246.480469 123.25 246.4375 123.523438 L 238.230469 178.039062 C 238.1875 178.316406 237.929688 178.507812 237.65625 178.464844 Z M 237.648438 178.464844 "/>
<path style=" stroke:none;fill-rule:nonzero;fill:rgb(24.705882%,23.921569%,33.72549%);fill-opacity:1;" d="M 258.457031 175.003906 L 253 175.582031 L 259.382812 121.519531 C 259.382812 121.519531 266.675781 120.199219 266.871094 120.726562 C 266.992188 121.042969 258.507812 174.660156 258.457031 175.003906 Z M 258.457031 175.003906 "/>
<path style=" stroke:none;fill-rule:nonzero;fill:rgb(24.705882%,23.921569%,33.72549%);fill-opacity:1;" d="M 187.3125 103.292969 L 187.164062 127.949219 L 230.777344 144.578125 L 246.4375 123.523438 Z M 187.3125 103.292969 "/>
<path style=" stroke:none;fill-rule:nonzero;fill:rgb(24.705882%,23.921569%,33.72549%);fill-opacity:1;" d="M 284.140625 118.902344 C 283.773438 118.445312 283.285156 118.105469 282.726562 117.921875 L 227.082031 99.371094 C 226.925781 99.320312 226.765625 99.28125 226.601562 99.253906 C 226.425781 99.226562 226.246094 99.210938 226.0625 99.214844 L 226.15625 98.652344 L 226.710938 98.246094 L 239.925781 88.671875 L 284.054688 102.207031 L 284.132812 117.515625 Z M 284.140625 118.902344 "/>
<path style=" stroke:none;fill-rule:nonzero;fill:rgb(100%,100%,100%);fill-opacity:1;" d="M 189.535156 142.871094 C 189.597656 142.878906 189.660156 142.890625 189.71875 142.910156 L 206.792969 148.523438 C 207.238281 148.667969 207.480469 149.148438 207.332031 149.59375 C 207.1875 150.039062 206.707031 150.28125 206.261719 150.136719 L 189.191406 144.523438 C 188.777344 144.390625 188.535156 143.96875 188.625 143.542969 C 188.710938 143.121094 189.105469 142.832031 189.535156 142.871094 Z M 189.535156 142.871094 "/>
<path style=" stroke:none;fill-rule:nonzero;fill:rgb(94.901961%,94.901961%,94.901961%);fill-opacity:1;" d="M 265.207031 239.503906 C 265.207031 243.257812 262.167969 246.296875 258.421875 246.296875 C 254.671875 246.296875 251.636719 243.257812 251.636719 239.503906 C 251.636719 235.753906 254.671875 232.714844 258.421875 232.714844 C 262.167969 232.714844 265.207031 235.753906 265.207031 239.503906 Z M 265.207031 239.503906 "/>
<path style=" stroke:none;fill-rule:nonzero;fill:rgb(94.901961%,94.901961%,94.901961%);fill-opacity:1;" d="M 92.171875 264.40625 C 92.171875 268.15625 89.136719 271.195312 85.386719 271.195312 C 81.640625 271.195312 78.601562 268.15625 78.601562 264.40625 C 78.601562 260.65625 81.640625 257.613281 85.386719 257.613281 C 89.136719 257.613281 92.171875 260.65625 92.171875 264.40625 Z M 92.171875 264.40625 "/>
<path style=" stroke:none;fill-rule:nonzero;fill:rgb(94.901961%,94.901961%,94.901961%);fill-opacity:1;" d="M 233.539062 39.746094 C 233.539062 43.496094 230.503906 46.535156 226.753906 46.535156 C 223.007812 46.535156 219.96875 43.496094 219.96875 39.746094 C 219.96875 35.996094 223.007812 32.957031 226.753906 32.957031 C 230.503906 32.957031 233.539062 35.996094 233.539062 39.746094 Z M 233.539062 39.746094 "/>
<path style=" stroke:none;fill-rule:nonzero;fill:rgb(100%,72.156863%,72.156863%);fill-opacity:1;" d="M 237.886719 152.859375 C 236.109375 153.632812 234.078125 153.578125 232.339844 152.710938 C 230.605469 151.839844 229.34375 150.246094 228.894531 148.355469 L 205.703125 146.011719 L 213.351562 136.613281 L 234.203125 140.28125 C 237.496094 139.726562 240.6875 141.722656 241.628906 144.933594 C 242.566406 148.140625 240.960938 151.546875 237.886719 152.859375 Z M 237.886719 152.859375 "/>
<path style=" stroke:none;fill-rule:nonzero;fill:rgb(90.196078%,90.196078%,90.196078%);fill-opacity:1;" d="M 223.625 149.132812 L 169.503906 144.140625 L 169.429688 144.054688 L 129.929688 98.765625 C 124.535156 90.488281 126.523438 79.441406 134.460938 73.570312 C 138.742188 70.410156 144.167969 69.234375 149.371094 70.339844 C 154.574219 71.445312 159.054688 74.722656 161.6875 79.34375 L 186.015625 122.09375 L 224.21875 137.457031 Z M 223.625 149.132812 "/>
<path style=" stroke:none;fill-rule:nonzero;fill:rgb(18.431373%,18.039216%,25.490196%);fill-opacity:1;" d="M 359.464844 62.03125 C 358.121094 52.164062 356.433594 41.574219 349.480469 34.453125 C 345.023438 29.886719 338.894531 27.339844 332.515625 27.40625 C 326.136719 27.472656 320.058594 30.144531 315.695312 34.800781 C 310.636719 40.203125 308.402344 47.792969 308.195312 55.195312 C 307.992188 62.597656 309.640625 69.921875 311.46875 77.097656 C 321.140625 77.292969 330.742188 75.398438 339.621094 71.550781 C 341.839844 70.589844 344.023438 69.496094 346.367188 68.902344 C 348.714844 68.304688 350.386719 69.804688 352.566406 70.855469 L 353.765625 68.558594 C 354.746094 70.386719 357.78125 69.84375 358.882812 68.089844 C 359.984375 66.332031 359.742188 64.085938 359.464844 62.03125 Z M 359.464844 62.03125 "/>
<path style=" stroke:none;fill-rule:nonzero;fill:rgb(61.960784%,38.039216%,41.568627%);fill-opacity:1;" d="M 321.121094 117.097656 L 281.609375 117.941406 C 279.917969 115.015625 276.210938 113.964844 273.234375 115.566406 C 270.261719 117.167969 269.097656 120.84375 270.605469 123.867188 C 272.113281 126.894531 275.746094 128.171875 278.816406 126.757812 C 284.054688 127.054688 325.054688 132.878906 327.5 129.125 C 329.984375 125.316406 343.234375 111.871094 343.234375 111.871094 L 333.046875 97.359375 Z M 321.121094 117.097656 "/>
<path style=" stroke:none;fill-rule:nonzero;fill:rgb(61.960784%,38.039216%,41.568627%);fill-opacity:1;" d="M 349.3125 53.214844 C 349.3125 63.472656 341.003906 71.792969 330.75 71.792969 C 320.496094 71.792969 312.183594 63.472656 312.183594 53.214844 C 312.183594 42.953125 320.496094 34.636719 330.75 34.636719 C 341.003906 34.636719 349.3125 42.953125 349.3125 53.214844 Z M 349.3125 53.214844 "/>
<path style=" stroke:none;fill-rule:nonzero;fill:rgb(24.705882%,23.921569%,33.72549%);fill-opacity:1;" d="M 360.484375 88.960938 C 358.296875 84.601562 357.230469 79.21875 352.566406 77.808594 C 349.417969 76.855469 336.679688 78.28125 333.808594 79.894531 C 329.035156 82.570312 333.363281 87.589844 330.546875 92.289062 C 327.484375 97.394531 319.160156 107.640625 316.097656 112.746094 C 313.992188 116.257812 321.085938 126.558594 319.945312 130.492188 C 318.808594 134.421875 318.753906 138.835938 320.691406 142.441406 C 322.429688 145.667969 319.917969 148.523438 321.664062 151.742188 C 323.476562 155.09375 325.703125 167.617188 324.015625 171.03125 L 322.886719 174.429688 C 334.109375 175.089844 343.542969 161.671875 354.695312 160.257812 C 357.46875 159.90625 360.34375 159.449219 362.625 157.839844 C 365.988281 155.46875 367.316406 151.167969 368.148438 147.136719 C 372.148438 127.429688 369.449219 106.953125 360.484375 88.960938 Z M 360.484375 88.960938 "/>
<path style=" stroke:none;fill-rule:nonzero;fill:rgb(61.960784%,38.039216%,41.568627%);fill-opacity:1;" d="M 377.308594 134.96875 C 375.746094 130.699219 372.914062 112.027344 372.914062 112.027344 L 355.203125 111.507812 L 363.863281 132.882812 L 340.230469 165.988281 C 340.230469 165.988281 340.277344 166.0625 340.355469 166.191406 C 337.8125 165.785156 335.28125 166.980469 333.976562 169.203125 C 332.671875 171.425781 332.863281 174.21875 334.460938 176.242188 C 336.054688 178.265625 338.726562 179.101562 341.191406 178.347656 C 343.652344 177.597656 345.402344 175.410156 345.597656 172.839844 C 345.777344 172.941406 346.003906 172.902344 346.136719 172.746094 C 348.769531 169.445312 378.871094 139.238281 377.308594 134.96875 Z M 377.308594 134.96875 "/>
<path style=" stroke:none;fill-rule:nonzero;fill:rgb(24.705882%,23.921569%,33.72549%);fill-opacity:1;" d="M 379.109375 123.179688 C 377.484375 116.3125 375.847656 109.40625 373.105469 102.90625 C 370.363281 96.402344 366.441406 90.261719 360.921875 85.867188 C 359.15625 84.464844 357.183594 83.222656 354.972656 82.789062 C 352.761719 82.351562 350.269531 82.839844 348.714844 84.472656 C 346.226562 87.089844 346.976562 91.289062 347.886719 94.785156 C 350.578125 105.082031 353.265625 115.382812 355.953125 125.683594 C 363.71875 124.859375 371.480469 124.035156 379.242188 123.210938 Z M 379.109375 123.179688 "/>
<path style=" stroke:none;fill-rule:nonzero;fill:rgb(18.431373%,18.039216%,25.490196%);fill-opacity:1;" d="M 353.496094 55.789062 C 352.8125 51.296875 352.097656 46.765625 350.492188 42.53125 C 348.886719 38.300781 346.296875 34.335938 342.582031 31.941406 C 336.703125 28.144531 329.089844 28.875 322.496094 31.058594 C 317.398438 32.746094 312.421875 35.3125 308.828125 39.441406 C 305.230469 43.566406 303.210938 49.453125 304.550781 54.847656 C 311.582031 53.183594 318.613281 51.523438 325.648438 49.859375 L 324.878906 50.402344 C 329.554688 52.738281 332.898438 57.097656 333.941406 62.226562 C 334.960938 67.414062 333.597656 72.78125 330.230469 76.851562 C 335.027344 75.152344 339.820312 73.449219 344.617188 71.746094 C 347.578125 70.695312 350.746094 69.484375 352.503906 66.789062 C 354.539062 63.664062 354.0625 59.519531 353.496094 55.789062 Z M 353.496094 55.789062 "/>
</g>
</svg>
